# xmcd CD database file
#
# Track frame offsets:
#	182
#	17487
#	34557
#	59832
#	74085
#	94355
#	112940
#	126570
#	144155
#	166127
#	184005
#	208450
#
# Disc length: 3013 seconds
#
# Revision: 2
# Processed by: cddbd v1.5.2PL0 Copyright (c) Steve Scherf et al.
# Submitted via: jetAudio 7
#
DISCID=b30bc30c
DTITLE=Unknown Artist - Unknown Album
DYEAR=2003
DGENRE=country
TTITLE0=Track01
TTITLE1=Track02
TTITLE2=Track3
TTITLE3=Track04
TTITLE4=Track05
TTITLE5=Track06
TTITLE6=Track07
TTITLE7=Track08
TTITLE8=Track09
TTITLE9=Track10
TTITLE10=Track11
TTITLE11=Track12
EXTD=
EXTT0=
EXTT1=
EXTT2=
EXTT3=
EXTT4=
EXTT5=
EXTT6=
EXTT7=
EXTT8=
EXTT9=
EXTT10=
EXTT11=
PLAYORDER=
